<?xml version="1.0" encoding="utf-8"?>
<!-- Generator: Adobe Illustrator 21.1.0, SVG Export Plug-In . SVG Version: 6.00 Build 0)  -->
<svg version="1.1" id="Layer_1" xmlns="http://www.w3.org/2000/svg" xmlns:xlink="http://www.w3.org/1999/xlink" x="0px" y="0px"
	 viewBox="0 0 175 175" style="enable-background:new 0 0 175 175;" xml:space="preserve">
<style type="text/css">
	.st0{fill:#272425;}
	.st1{fill:#FFFFFF;}
	.st2{opacity:0.37;fill:url(#SVGID_1_);enable-background:new    ;}
	.st3{fill:#231F20;}
	.st4{opacity:0.37;fill:url(#SVGID_2_);enable-background:new    ;}
	.st5{font-family:'Roboto-Light';}
	.st6{font-size:11.634px;}
</style>
<rect class="st0" width="175" height="175"/>
<g>
	<rect x="29.7" y="23.5" class="st0" width="113.6" height="113.6"/>
	<g>
		<g>
			<path class="st1" d="M67.9,54.4L81,68l5.6-5.8C85.5,61.1,68.3,43.4,67.9,43c-7.5,7.9-15.3,15.4-22.5,23.2c-0.8,0.9-0.8,2.8,0,3.7
				c7.1,7.7,14.6,15,22.5,23.3C80.5,80,92.7,67.6,105.3,54.4c4.3,4.4,8,7.9,11.3,11.8c0.9,1,0.5,3-0.4,4.1
				c-3.1,3.6-10.9,11.1-10.9,11.1L92.2,68l-5.6,5.7c1.3,1.3,15.9,16.4,18.7,19.3c6.9-7.2,13-13.5,19.4-20.1c1.1-1.1,2.2-2.4,3.2-3.7
				c0.7-0.8,0.3-2.3-0.5-3.2c-7-7.6-14.2-14.9-22.1-23.1C92.6,56.1,80.5,68.5,67.9,81.5c-4.3-4.4-8.3-8.4-12-12.5
				c-0.6-0.6-0.4-1.8,0.2-2.4C59.7,62.6,63.6,58.8,67.9,54.4z"/>
			
				<linearGradient id="SVGID_1_" gradientUnits="userSpaceOnUse" x1="73.9755" y1="118.6452" x2="85.5483" y2="111.9637" gradientTransform="matrix(1 0 0 -1 0 176)">
				<stop  offset="0" style="stop-color:#FFFFFF"/>
				<stop  offset="1" style="stop-color:#231F20"/>
			</linearGradient>
			<polygon class="st2" points="81,68 86.6,62.2 77.5,52.8 72.8,59.5 			"/>
		</g>
		<g>
			<g>
				<path class="st3" d="M73.2,103.2h-5.8v14.3h-2.1v-14.3h-5.8v-1.8h13.6L73.2,103.2L73.2,103.2z"/>
				<path class="st3" d="M78.1,117.7c-0.9,0-1.8-0.2-2.5-0.5c-0.8-0.3-1.4-0.8-2-1.3c-0.5-0.6-1-1.2-1.3-2s-0.5-1.5-0.5-2.4
					c0-0.8,0.2-1.6,0.5-2.4c0.3-0.7,0.7-1.4,1.3-2c0.6-0.6,1.2-1,2-1.3s1.6-0.5,2.5-0.5s1.8,0.2,2.5,0.5c0.8,0.3,1.4,0.8,1.9,1.3
					c0.5,0.6,0.9,1.2,1.2,1.9c0.3,0.7,0.4,1.5,0.4,2.3c0,0.2,0,0.3,0,0.5c0,0.1,0,0.2,0,0.3H74c0,0.6,0.2,1.1,0.4,1.6
					c0.2,0.5,0.5,0.9,0.9,1.3c0.4,0.3,0.8,0.6,1.3,0.8c0.5,0.2,1,0.3,1.5,0.3c0.4,0,0.7,0,1.1-0.1s0.7-0.2,1-0.4
					c0.3-0.2,0.6-0.4,0.8-0.6c0.2-0.2,0.4-0.5,0.6-0.8l1.8,0.5c-0.2,0.4-0.5,0.8-0.8,1.2c-0.4,0.4-0.8,0.7-1.2,0.9
					c-0.5,0.3-1,0.5-1.5,0.6C79.3,117.7,78.7,117.7,78.1,117.7z M82.3,110.8c0-0.6-0.2-1.1-0.4-1.6c-0.2-0.5-0.5-0.9-0.9-1.2
					c-0.4-0.3-0.8-0.6-1.3-0.8c-0.5-0.2-1-0.3-1.6-0.3c-0.5,0-1.1,0.1-1.6,0.3c-0.5,0.2-0.9,0.5-1.3,0.8s-0.7,0.7-0.9,1.2
					c-0.2,0.5-0.4,1-0.4,1.5L82.3,110.8L82.3,110.8z"/>
				<path class="st3" d="M97.2,117.5h-2.1v-6.6c0-1.3-0.2-2.2-0.6-2.8c-0.4-0.6-1-0.9-1.8-0.9c-0.4,0-0.8,0.1-1.3,0.2
					c-0.4,0.2-0.8,0.4-1.2,0.6c-0.4,0.3-0.7,0.6-1,1s-0.5,0.8-0.6,1.3v7.2h-2.1v-11.9h1.9v2.5c0.5-0.8,1.2-1.5,2.1-2s1.9-0.8,3-0.8
					c0.7,0,1.3,0.1,1.8,0.4s0.8,0.6,1.1,1c0.3,0.4,0.5,1,0.6,1.6s0.2,1.3,0.2,2V117.5z"/>
				<path class="st3" d="M101,101.4l5.1,6.7l5.1-6.7h2.3l-6.3,8.2l6.1,8H111l-4.9-6.5l-4.9,6.5h-2.4l6.1-8l-6.3-8.2H101z"/>
			</g>
			<g>
				<path class="st1" d="M73.2,103.2h-5.8v14.3h-2.1v-14.3h-5.8v-1.8h13.6L73.2,103.2L73.2,103.2z"/>
				<path class="st1" d="M78.1,117.7c-0.9,0-1.8-0.2-2.5-0.5c-0.8-0.3-1.4-0.8-2-1.3c-0.5-0.6-1-1.2-1.3-2s-0.5-1.5-0.5-2.4
					c0-0.8,0.2-1.6,0.5-2.4c0.3-0.7,0.7-1.4,1.3-2c0.6-0.6,1.2-1,2-1.3s1.6-0.5,2.5-0.5s1.8,0.2,2.5,0.5c0.8,0.3,1.4,0.8,1.9,1.3
					c0.5,0.6,0.9,1.2,1.2,1.9c0.3,0.7,0.4,1.5,0.4,2.3c0,0.2,0,0.3,0,0.5c0,0.1,0,0.2,0,0.3H74c0,0.6,0.2,1.1,0.4,1.6
					c0.2,0.5,0.5,0.9,0.9,1.3c0.4,0.3,0.8,0.6,1.3,0.8c0.5,0.2,1,0.3,1.5,0.3c0.4,0,0.7,0,1.1-0.1s0.7-0.2,1-0.4
					c0.3-0.2,0.6-0.4,0.8-0.6c0.2-0.2,0.4-0.5,0.6-0.8l1.8,0.5c-0.2,0.4-0.5,0.8-0.8,1.2c-0.4,0.4-0.8,0.7-1.2,0.9
					c-0.5,0.3-1,0.5-1.5,0.6C79.3,117.7,78.7,117.7,78.1,117.7z M82.3,110.8c0-0.6-0.2-1.1-0.4-1.6c-0.2-0.5-0.5-0.9-0.9-1.2
					c-0.4-0.3-0.8-0.6-1.3-0.8c-0.5-0.2-1-0.3-1.6-0.3c-0.5,0-1.1,0.1-1.6,0.3c-0.5,0.2-0.9,0.5-1.3,0.8s-0.7,0.7-0.9,1.2
					c-0.2,0.5-0.4,1-0.4,1.5L82.3,110.8L82.3,110.8z"/>
				<path class="st1" d="M97.2,117.5h-2.1v-6.6c0-1.3-0.2-2.2-0.6-2.8c-0.4-0.6-1-0.9-1.8-0.9c-0.4,0-0.8,0.1-1.3,0.2
					c-0.4,0.2-0.8,0.4-1.2,0.6c-0.4,0.3-0.7,0.6-1,1s-0.5,0.8-0.6,1.3v7.2h-2.1v-11.9h1.9v2.5c0.5-0.8,1.2-1.5,2.1-2s1.9-0.8,3-0.8
					c0.7,0,1.3,0.1,1.8,0.4s0.8,0.6,1.1,1c0.3,0.4,0.5,1,0.6,1.6s0.2,1.3,0.2,2V117.5z"/>
				<path class="st1" d="M101,101.4l5.1,6.7l5.1-6.7h2.3l-6.3,8.2l6.1,8H111l-4.9-6.5l-4.9,6.5h-2.4l6.1-8l-6.3-8.2H101z"/>
			</g>
		</g>
		
			<linearGradient id="SVGID_2_" gradientUnits="userSpaceOnUse" x1="87.5499" y1="103.8838" x2="100.0763" y2="96.6517" gradientTransform="matrix(1 0 0 -1 0 176)">
			<stop  offset="0" style="stop-color:#231F20"/>
			<stop  offset="1" style="stop-color:#FFFFFF"/>
		</linearGradient>
		<polygon class="st4" points="92.2,68 86.6,73.8 96.7,84.2 101.3,77.3 		"/>
	</g>
</g>
<rect x="0.2" class="st1" width="37.8" height="37.8"/>
<text transform="matrix(1 0 0 1 30.0359 153.8977)" class="st1 st5 st6">POWERED BY RIOT.IM</text>
<g id="Layer_2_1_">
	<g id="Design_1_">
		<path d="M28.4,15.6h4.1c0.2,0,0.4-0.2,0.4-0.4s-0.2-0.4-0.4-0.4h-4.1c-0.2,0-0.4,0.2-0.4,0.4C28,15.4,28.2,15.6,28.4,15.6z"/>
		<path d="M28.4,8.3h1.2v1.2l0,0l-1.4,1c-0.2,0.1-0.2,0.4-0.1,0.6c0.1,0.2,0.4,0.2,0.6,0.1l1.1-0.8c0.4,0.8,1.4,1.1,2.2,0.7
			c0.6-0.3,0.9-0.8,0.9-1.5V7.9l0,0c0-0.2-0.2-0.4-0.4-0.4l0,0h-4.1c-0.2,0-0.4,0.2-0.4,0.4S28.2,8.3,28.4,8.3z M32.1,9.6
			c0,0.4-0.3,0.8-0.8,0.8c-0.4,0-0.8-0.3-0.8-0.8c0,0,0,0,0-0.1V8.3h1.6V9.6z"/>
		<path d="M32.5,26.2c-0.2,0-0.4,0.2-0.4,0.4l0,0v1.2h-3.7c-0.2,0-0.4,0.2-0.4,0.4l0,0c0,0.2,0.2,0.4,0.4,0.4l0,0h3.7v1.2
			c0,0.2,0.2,0.4,0.4,0.4s0.4-0.2,0.4-0.4v-1.6l0,0v-1.6C32.9,26.4,32.7,26.2,32.5,26.2L32.5,26.2z"/>
		<path d="M30.5,19c-1.4,0-2.5,1.1-2.5,2.5s1.1,2.5,2.5,2.5s2.5-1.1,2.5-2.5C32.9,20.1,31.8,19,30.5,19z M30.5,23.1
			c-0.9,0-1.7-0.7-1.7-1.7s0.7-1.7,1.7-1.7c0.9,0,1.7,0.7,1.7,1.7l0,0C32.1,22.4,31.4,23.1,30.5,23.1z"/>
		<path d="M15,7.4H8.5c-1.8,0-3.3,1.5-3.3,3.3l0,0V27c0,1.8,1.5,3.3,3.3,3.3s3.3-1.5,3.3-3.3v-3.3H15c4.5,0,8.2-3.7,8.2-8.2
			S19.6,7.4,15,7.4z"/>
		<path class="st1" d="M8.5,29.5c-1.4,0-2.4-1.1-2.5-2.5V10.7c0-1.3,1.1-2.4,2.4-2.5H15c4.1,0.1,7.3,3.4,7.2,7.5
			c-0.1,4-3.3,7.2-7.2,7.2h-4V27C11,28.4,9.9,29.5,8.5,29.5z"/>
		<path d="M8.5,28.7c-0.9,0-1.6-0.7-1.6-1.6V10.7c0-0.9,0.7-1.6,1.6-1.6H15c3.6,0,6.5,2.9,6.5,6.5s-2.9,6.5-6.5,6.5h-4.9V27
			C10.2,27.9,9.4,28.7,8.5,28.7z"/>
		<path class="st1" d="M8.5,27.9c-0.5,0-0.8-0.4-0.8-0.8l0,0V10.7c0-0.4,0.4-0.8,0.8-0.8H15c3.2,0,5.7,2.6,5.7,5.7s-2.6,5.7-5.7,5.7
			H9.3V27C9.3,27.5,9,27.9,8.5,27.9z"/>
		<path d="M8.5,20.5H15c2.7,0,4.9-2.2,4.9-4.9s-2.2-4.9-4.9-4.9H8.5V20.5z"/>
		<path class="st1" d="M9.3,19.7v-8.2H15c2.3,0,4.1,1.9,4,4.2c0,2.2-1.8,4-4,4H9.3z"/>
		<path d="M10.2,18.9v-6.5H15c1.8,0,3.2,1.5,3.2,3.3s-1.4,3.2-3.2,3.2H10.2z"/>
		<path class="st1" d="M11,18.1v-4.9h4c1.4,0,2.5,1.1,2.5,2.5s-1.1,2.5-2.5,2.5l0,0h-4V18.1z"/>
		<path d="M11.8,17.2V14H15c0.9,0,1.6,0.7,1.6,1.6c0,0.9-0.6,1.6-1.6,1.6l0,0H11.8z"/>
		<path class="st1" d="M12.6,16.4v-1.7H15c0.5,0,0.8,0.4,0.8,0.8c0,0.5-0.4,0.8-0.8,0.8L12.6,16.4z"/>
		<ellipse transform="matrix(0.8192 -0.5736 0.5736 0.8192 -4.6236 6.7548)" cx="8.4" cy="10.7" rx="3.3" ry="3.3"/>
		<path d="M22.5,25.2c1,1.5,0.7,3.5-0.8,4.5s-3.5,0.7-4.5-0.8l0,0l-4.9-7c-1-1.5-0.7-3.5,0.8-4.5s3.5-0.7,4.5,0.8L22.5,25.2z"/>
	</g>
</g>
</svg>
